<svg width="600" height="600" viewBox="0 0 600 600" fill="none" xmlns="http://www.w3.org/2000/svg">
<path fill-rule="evenodd" clip-rule="evenodd" d="M262.003 369.447L145.492 299.235C134.605 292.723 125.601 283.489 119.367 272.44C113.132 261.391 109.882 248.909 109.937 236.223C109.881 223.522 113.137 211.025 119.384 199.966C125.63 188.907 134.652 179.668 145.558 173.159L238.505 117.151C257.067 105.931 278.343 100 300.033 100C321.722 100 342.999 105.931 361.561 117.151L454.508 173.159C465.394 179.671 474.397 188.906 480.632 199.955C486.866 211.003 490.116 223.484 490.063 236.17C490.12 248.872 486.865 261.369 480.618 272.428C474.371 283.488 465.349 292.727 454.442 299.235L337.931 369.434C326.478 376.356 313.35 380.019 299.967 380.025C286.586 380.02 273.459 376.363 262.003 369.447ZM378.082 303.594L412.668 282.752L434.321 269.66L319.565 200.521C313.66 196.952 306.893 195.064 299.993 195.062C293.098 195.066 286.336 196.953 280.435 200.521L165.692 269.66L187.331 282.752L221.918 303.594L280.435 338.851C286.339 342.416 293.104 344.301 300 344.301C306.896 344.301 313.661 342.416 319.565 338.851L378.082 303.594ZM256.884 147.682L163.938 203.689H163.925C158.313 207.043 153.672 211.801 150.458 217.494C147.245 223.188 145.569 229.62 145.597 236.158C145.614 237.435 145.697 238.711 145.846 239.98L262.029 169.978C273.484 163.06 286.612 159.403 299.993 159.403C313.375 159.403 326.503 163.06 337.958 169.978L454.141 239.98C454.153 239.851 454.165 239.722 454.177 239.593C454.284 238.456 454.39 237.333 454.39 236.158C454.421 229.619 452.748 223.185 449.534 217.492C446.319 211.798 441.676 207.041 436.062 203.689L343.115 147.682C330.104 139.824 315.193 135.669 299.993 135.664C284.798 135.671 269.892 139.826 256.884 147.682ZM126.484 357.284L145.493 368.74L237.942 424.446C256.667 435.749 278.122 441.728 299.994 441.741C321.858 441.721 343.303 435.737 362.019 424.433L455.922 367.863L456.105 367.732L473.058 357.52C478.249 354.393 482.543 349.977 485.525 344.702C488.507 339.426 490.075 333.469 490.076 327.409V305.597L436.076 338.118L343.692 393.85C330.526 401.806 315.435 406.011 300.053 406.011C284.67 406.011 269.58 401.806 256.413 393.85L163.925 338.118L109.872 305.545V327.801C109.857 333.733 111.379 339.566 114.291 344.734C117.202 349.901 121.403 354.225 126.484 357.284ZM436.076 403.499L365.2 446.192C345.53 458.082 322.984 464.368 300 464.368C277.016 464.368 254.47 458.082 234.8 446.192L163.925 403.499L109.937 370.966H109.872V393.104C109.873 399.04 111.407 404.875 114.327 410.043C117.247 415.211 121.453 419.537 126.537 422.6L145.492 434.03L174.031 451.219L181.519 455.736L216.368 476.684C241.598 491.93 270.515 499.992 299.994 500C329.476 499.988 358.396 491.926 383.633 476.684L444.467 440.026L472.888 423.085C478.14 419.952 482.49 415.51 485.511 410.193C488.533 404.876 490.124 398.866 490.129 392.751V370.822L436.076 403.499Z" fill="white"/>
</svg>
